<svg width="618" height="609" viewBox="0 0 618 609" fill="none" xmlns="http://www.w3.org/2000/svg">
<g id="group" clip-path="url(#clip0_8_2)">
<path d="M309 608.983C479.656 608.983 618 529.111 618 430.583C618 332.056 479.656 252.184 309 252.184C138.344 252.184 0 332.056 0 430.583C0 529.111 138.344 608.983 309 608.983Z" fill="#231f30"/>
<path d="M338.67 584.482C359.47 584.482 376.332 574.746 376.332 562.736C376.332 550.726 359.47 540.99 338.67 540.99C317.87 540.99 301.009 550.726 301.009 562.736C301.009 574.746 317.87 584.482 338.67 584.482Z" fill="#E0E0E0"/>
<path d="M393.826 530.501C403.491 536.076 403.491 545.12 393.826 550.749C384.161 556.378 368.516 556.324 358.851 550.749C349.186 545.174 349.199 536.13 358.851 530.501C368.503 524.872 384.175 524.926 393.826 530.501Z" fill="#E0E0E0"/>
<path d="M86.6621 445.661L329.923 305.274C334.26 302.767 339.181 301.447 344.191 301.447C349.201 301.447 354.122 302.767 358.459 305.274L418.137 340.371C419.553 341.189 420.728 342.364 421.546 343.78C422.363 345.196 422.793 346.802 422.793 348.437C422.793 350.071 422.363 351.677 421.546 353.093C420.728 354.509 419.553 355.684 418.137 356.502L174.89 496.889C170.548 499.39 165.625 500.706 160.615 500.706C155.605 500.706 150.682 499.39 146.34 496.889L86.6621 461.792C85.2465 460.975 84.0711 459.799 83.2538 458.383C82.4366 456.967 82.0063 455.362 82.0063 453.727C82.0063 452.092 82.4366 450.486 83.2538 449.07C84.0711 447.655 85.2465 446.479 86.6621 445.661Z" fill="#E0E0E0"/>
<path d="M404.463 416.045L482.122 370.905C487.373 367.875 493.33 366.279 499.393 366.279C505.457 366.279 511.413 367.875 516.665 370.905L588.856 413.278C590.569 414.267 591.991 415.69 592.98 417.403C593.968 419.116 594.489 421.06 594.489 423.037C594.489 425.015 593.968 426.959 592.98 428.672C591.991 430.385 590.569 431.808 588.856 432.797L511.198 477.937C505.946 480.967 499.99 482.563 493.926 482.563C487.863 482.563 481.906 480.967 476.655 477.937L404.463 435.564C402.751 434.575 401.328 433.152 400.34 431.439C399.351 429.726 398.831 427.783 398.831 425.805C398.831 423.827 399.351 421.884 400.34 420.171C401.328 418.457 402.751 417.035 404.463 416.045Z" fill="#E0E0E0"/>
<path d="M220.286 499.926L208.542 506.743C208.542 506.743 214.468 487.845 211.242 468.798C210.455 464.312 208.834 460.012 206.464 456.123C205.532 454.206 198.459 442.327 204.695 436.86C210.932 431.393 225.551 442.26 224.943 471.592C224.591 481.196 223.026 490.716 220.286 499.926Z" fill="#7A51E6"/>
<path opacity="0.3" d="M220.286 499.926L208.542 506.743C208.542 506.743 214.468 487.845 211.242 468.798C210.455 464.312 208.834 460.012 206.464 456.123C205.532 454.206 198.459 442.327 204.695 436.86C210.932 431.393 225.551 442.26 224.943 471.592C224.591 481.196 223.026 490.716 220.286 499.926Z" fill="black"/>
<path d="M214.833 503.625H214.644C214.512 503.574 214.406 503.473 214.348 503.344C214.29 503.215 214.285 503.069 214.333 502.937C214.333 502.815 218.747 490.653 218.518 471.08C218.288 451.506 208.137 441.315 208.029 441.207C207.93 441.106 207.875 440.97 207.875 440.829C207.875 440.688 207.93 440.552 208.029 440.451C208.13 440.352 208.266 440.297 208.407 440.297C208.549 440.297 208.684 440.352 208.785 440.451C208.893 440.559 219.355 451.169 219.584 471.066C219.814 490.963 215.373 503.18 215.332 503.301C215.29 503.398 215.22 503.481 215.131 503.538C215.042 503.596 214.939 503.626 214.833 503.625Z" fill="white"/>
<path d="M211.175 505.245L191.777 516.665C191.777 516.665 182.895 515.315 183.57 506.986C184.245 498.658 187.849 496.66 183.354 492.988C178.859 489.316 177.698 489.06 177.954 485.456C178.211 481.852 180.654 480.286 181.734 478.868C182.814 477.451 186.053 474.441 183.813 470.094C181.572 465.748 178.548 461.549 183.043 459.565C185.743 458.377 190.252 459.862 193.235 463.048C196.218 466.233 198.634 468.447 201.536 469.244C204.439 470.04 210.297 470.04 210.095 474.927C209.892 479.813 208.623 481.501 209.811 483.674C211.998 487.764 221.542 489.964 211.175 505.245Z" fill="#7A51E6"/>
<path d="M203.278 510.428C203.209 510.423 203.141 510.405 203.079 510.373C203.017 510.342 202.962 510.299 202.917 510.246C202.872 510.193 202.837 510.132 202.816 510.066C202.795 510 202.786 509.931 202.792 509.861C202.792 509.565 204.871 481.136 185.149 462.494C185.05 462.393 184.995 462.258 184.995 462.116C184.995 461.975 185.05 461.839 185.149 461.738C185.197 461.688 185.254 461.648 185.318 461.621C185.382 461.594 185.451 461.579 185.52 461.579C185.59 461.579 185.658 461.594 185.722 461.621C185.786 461.648 185.844 461.688 185.891 461.738C206.005 480.731 203.885 509.659 203.858 509.956C203.853 510.026 203.834 510.094 203.802 510.156C203.77 510.219 203.725 510.274 203.67 510.318C203.616 510.362 203.553 510.395 203.486 510.414C203.418 510.433 203.347 510.438 203.278 510.428Z" fill="white"/>
<path d="M199.795 485.631C199.726 485.626 199.658 485.607 199.596 485.576C199.534 485.545 199.479 485.502 199.434 485.449C199.389 485.396 199.355 485.335 199.333 485.269C199.312 485.203 199.304 485.133 199.309 485.064C199.457 482.684 200.096 480.361 201.185 478.24C202.275 476.119 203.791 474.246 205.64 472.74C205.758 472.662 205.902 472.631 206.042 472.654C206.181 472.676 206.308 472.75 206.396 472.861C206.473 472.978 206.503 473.119 206.481 473.256C206.458 473.394 206.384 473.518 206.274 473.604C204.562 475.029 203.156 476.786 202.142 478.77C201.128 480.754 200.527 482.922 200.375 485.145C200.37 485.216 200.351 485.284 200.319 485.347C200.287 485.41 200.242 485.466 200.188 485.511C200.134 485.557 200.071 485.591 200.004 485.611C199.936 485.632 199.865 485.639 199.795 485.631Z" fill="white"/>
<path d="M201.226 490.572C201.152 490.572 201.079 490.556 201.012 490.526C200.944 490.495 200.884 490.451 200.834 490.396C200.834 490.396 195.907 485.132 184.798 486.644C184.658 486.661 184.517 486.623 184.406 486.537C184.295 486.451 184.222 486.324 184.204 486.185C184.186 486.045 184.224 485.904 184.31 485.793C184.397 485.681 184.523 485.609 184.663 485.591C196.353 483.971 201.415 489.451 201.631 489.64C201.727 489.743 201.78 489.878 201.78 490.018C201.78 490.159 201.727 490.294 201.631 490.396C201.58 490.453 201.518 490.498 201.448 490.528C201.378 490.559 201.302 490.574 201.226 490.572Z" fill="white"/>
<path d="M301.576 411.132L261.593 433.89C258.485 435.669 254.967 436.604 251.387 436.604C247.807 436.604 244.29 435.669 241.182 433.89L215.535 419.042L212.619 417.355C209.58 415.598 207.056 413.073 205.3 410.034C203.544 406.994 202.619 403.546 202.616 400.036V326.197L262.632 292.032V367.396C262.63 370.426 263.427 373.404 264.941 376.03C266.455 378.655 268.634 380.836 271.258 382.352L301.603 399.901C302.592 400.468 303.413 401.288 303.983 402.275C304.554 403.263 304.853 404.384 304.85 405.524C304.847 406.664 304.543 407.784 303.968 408.769C303.393 409.753 302.568 410.569 301.576 411.132Z" fill="#263238"/>
<path d="M253.034 436.482C256.046 436.254 258.969 435.36 261.592 433.863L301.576 411.132C302.563 410.565 303.383 409.749 303.954 408.764C304.524 407.779 304.824 406.661 304.824 405.523C304.824 404.385 304.524 403.267 303.954 402.282C303.383 401.297 302.563 400.48 301.576 399.914L280.855 387.941H253.034V436.482Z" fill="#37474F"/>
<path d="M300.901 394.933L302.008 395.81C302.9 396.525 303.621 397.431 304.116 398.461C304.612 399.491 304.869 400.62 304.869 401.763V405.503H300.82L300.901 394.933Z" fill="#37474F"/>
<path d="M267.249 297.742V365.546C267.241 368.49 268.01 371.384 269.476 373.936C270.943 376.488 273.057 378.609 275.604 380.084L300.901 394.933C301.845 395.483 302.628 396.271 303.172 397.219C303.717 398.166 304.003 399.24 304.003 400.333C304.003 401.425 303.717 402.499 303.172 403.446C302.628 404.394 301.845 405.182 300.901 405.732L298.026 407.365L262.186 427.776C259.174 429.487 255.767 430.381 252.303 430.369C248.839 430.357 245.438 429.44 242.438 427.708L217.573 413.035C215.019 411.585 212.891 409.488 211.406 406.955C209.92 404.422 209.128 401.542 209.109 398.605V330.8L267.249 297.742Z" fill="#455A64"/>
<path d="M267.249 365.546V297.742L209.204 330.8V398.605C209.202 401.54 209.973 404.424 211.44 406.967C212.907 409.51 215.017 411.621 217.56 413.089L274.808 379.491C272.491 377.974 270.588 375.906 269.268 373.472C267.949 371.038 267.255 368.315 267.249 365.546Z" fill="#263238"/>
<path d="M109.61 433.337L104.062 436.55V446.687C100.501 446.69 97.006 445.724 93.9514 443.893L93.5195 443.637C92.2481 442.882 91.1437 441.876 90.2734 440.681C89.4032 439.486 88.7853 438.126 88.4574 436.685C88.256 436.066 88.1513 435.419 88.147 434.768V420.959L109.61 433.337Z" fill="#263238"/>
<path d="M350.561 60.8254L350.129 60.5554C347.079 58.7409 343.596 57.7804 340.046 57.7747C338.907 57.7622 337.787 58.0609 336.806 58.6386L97.8782 196.042C94.9409 197.74 92.5016 200.18 90.8052 203.118C89.1088 206.056 88.2149 209.388 88.2131 212.781V420.959L109.663 433.337L336.658 302.845C339.595 301.147 342.034 298.707 343.731 295.769C345.427 292.831 346.321 289.499 346.323 286.106V70.2475H355.974C355.969 68.342 355.467 66.4708 354.518 64.8185C353.568 63.1662 352.205 61.7899 350.561 60.8254Z" fill="#37474F"/>
<path d="M90.2123 204.115C88.8599 206.804 88.1527 209.771 88.147 212.781V420.959L109.61 433.337L117.642 428.707V221.096L90.2123 204.115Z" fill="#263238"/>
<path d="M97.812 426.534V440.343C97.8171 441.447 98.1109 442.531 98.6643 443.486C99.2177 444.442 100.011 445.236 100.967 445.79C101.922 446.344 103.005 446.639 104.109 446.644C105.214 446.65 106.3 446.367 107.261 445.823L346.189 308.42C349.126 306.722 351.566 304.282 353.262 301.344C354.958 298.406 355.852 295.074 355.854 291.681V277.494L97.812 426.534Z" fill="#37474F"/>
<path d="M355.922 69.6941C355.917 68.5898 355.623 67.5062 355.069 66.5506C354.516 65.595 353.722 64.8008 352.767 64.2468C351.812 63.6928 350.729 63.3983 349.624 63.3924C348.52 63.3866 347.434 63.6697 346.473 64.2136L107.545 201.617C104.607 203.315 102.168 205.755 100.472 208.693C98.7753 211.631 97.8814 214.963 97.8796 218.356V426.534L355.922 277.494" fill="#455A64"/>
<path d="M342.072 79.2782C340.981 79.271 339.904 79.5207 338.927 80.0071L114.308 209.109C111.702 210.612 109.539 212.777 108.039 215.384C106.538 217.992 105.753 220.95 105.763 223.958V401.264C105.764 402.03 105.92 402.788 106.222 403.491C106.537 404.215 107.001 404.864 107.583 405.396C108.166 405.928 108.855 406.331 109.604 406.578C110.354 406.825 111.147 406.911 111.932 406.831C112.717 406.75 113.476 406.504 114.159 406.11L338.698 277.008C341.3 275.502 343.459 273.336 344.957 270.729C346.455 268.122 347.239 265.166 347.229 262.159V84.8532C347.23 83.4452 346.699 82.0889 345.743 81.0553C344.787 80.0217 343.476 79.387 342.072 79.2782Z" fill="#7A51E6"/>
<path opacity="0.4" d="M342.072 79.2782C340.981 79.271 339.904 79.5207 338.927 80.0071L114.308 209.109C111.702 210.612 109.539 212.777 108.039 215.384C106.538 217.992 105.753 220.95 105.763 223.958V401.264C105.764 402.03 105.92 402.788 106.222 403.491C106.537 404.215 107.001 404.864 107.583 405.396C108.166 405.928 108.855 406.331 109.604 406.578C110.354 406.825 111.147 406.911 111.932 406.831C112.717 406.75 113.476 406.504 114.159 406.11L338.698 277.008C341.3 275.502 343.459 273.336 344.957 270.729C346.455 268.122 347.239 265.166 347.229 262.159V84.8532C347.23 83.4452 346.699 82.0889 345.743 81.0553C344.787 80.0217 343.476 79.387 342.072 79.2782Z" fill="white"/>
<path d="M126.267 234.878V433.917C126.267 437.103 127.442 439.249 129.237 439.965L136.864 444.149V437.4L137.957 232.773L127.982 227.737C126.906 229.968 126.321 232.403 126.267 234.878Z" fill="#E0E0E0"/>
<path d="M127.982 227.71L137.957 232.746L379.288 91.2111L385.039 87.8769L377.088 83.3953L376.872 83.2603C376.122 82.8772 375.28 82.7073 374.44 82.7692C373.6 82.831 372.793 83.1223 372.107 83.6113L133.516 221.164C131.06 222.745 129.132 225.025 127.982 227.71Z" fill="#F0F0F0"/>
<path d="M134.866 239.211V436.941C134.866 439.641 135.744 441.666 137.148 442.584L137.593 442.84C138.312 443.123 139.09 443.225 139.858 443.135C140.625 443.046 141.359 442.768 141.994 442.327L379.288 305.639C383.23 303.358 386.429 297.256 386.429 292.005V94.2888C386.429 91.5891 385.605 89.6993 384.296 88.7408C384.075 88.57 383.829 88.4335 383.567 88.3359C382.86 88.0837 382.103 88.0035 381.359 88.1021C380.615 88.2007 379.905 88.4752 379.288 88.9028L142.048 225.591C139.73 227.101 137.897 229.248 136.77 231.774C135.587 234.08 134.937 236.621 134.866 239.211Z" fill="white"/>
<path d="M354.491 221.312L241.506 286.579C240.935 286.911 240.286 287.088 239.625 287.089C238.964 287.091 238.315 286.918 237.742 286.588C237.169 286.257 236.694 285.782 236.364 285.209C236.034 284.636 235.862 283.986 235.864 283.325V222.851C235.865 219.76 236.679 216.724 238.223 214.046C239.768 211.369 241.99 209.145 244.665 207.597L355.058 143.856C355.878 143.383 356.809 143.133 357.756 143.133C358.704 143.133 359.634 143.382 360.455 143.855C361.276 144.328 361.957 145.009 362.432 145.829C362.906 146.649 363.156 147.579 363.157 148.527V206.369C363.151 209.401 362.347 212.378 360.825 215.001C359.304 217.624 357.12 219.801 354.491 221.312Z" fill="#7A51E6"/>
<path d="M253.736 320.906L239.778 329.005C237.335 330.422 235.351 328.924 235.351 325.657V311.092C235.376 309.432 235.789 307.8 236.558 306.328C237.327 304.856 238.43 303.584 239.778 302.615L253.736 294.516C256.179 293.098 258.164 294.597 258.164 297.863V312.388C258.148 314.056 257.739 315.697 256.97 317.177C256.2 318.657 255.092 319.935 253.736 320.906Z" fill="#7A51E6"/>
<path d="M287.78 301.36L273.822 309.459C271.379 310.809 269.395 309.378 269.395 306.111V291.546C269.419 289.887 269.832 288.257 270.601 286.787C271.37 285.317 272.473 284.048 273.822 283.082L287.78 274.983C290.223 273.633 292.208 275.064 292.208 278.331V292.856C292.19 294.521 291.78 296.159 291.011 297.637C290.241 299.115 289.135 300.39 287.78 301.36Z" fill="#7A51E6"/>
<path d="M322.823 281.112L308.865 289.211C306.422 290.561 304.438 289.13 304.438 285.863V271.284C304.465 269.626 304.879 267.997 305.648 266.528C306.417 265.058 307.518 263.789 308.865 262.821L322.823 254.722C325.266 253.372 327.25 254.816 327.25 258.083V272.607C327.233 274.273 326.823 275.911 326.053 277.389C325.284 278.866 324.177 280.142 322.823 281.112Z" fill="#7A51E6"/>
<path d="M357.879 260.863L343.921 268.963C341.478 270.313 339.494 268.868 339.494 265.615V251.036C339.521 249.378 339.935 247.749 340.704 246.28C341.473 244.81 342.575 243.541 343.921 242.573L357.879 234.473C360.322 233.124 362.307 234.568 362.307 237.821V252.359C362.288 254.025 361.877 255.663 361.108 257.14C360.339 258.617 359.233 259.893 357.879 260.863Z" fill="#7A51E6"/>
<path d="M253.736 359.364L239.778 367.463C237.335 368.813 235.351 367.369 235.351 364.116V349.537C235.376 347.878 235.789 346.248 236.558 344.779C237.327 343.309 238.43 342.04 239.778 341.073L253.736 332.974C256.179 331.557 258.164 333.068 258.164 336.322V350.86C258.143 352.525 257.731 354.162 256.962 355.639C256.193 357.116 255.088 358.392 253.736 359.364Z" fill="#7A51E6"/>
<path d="M287.78 339.818L273.822 347.917C271.379 349.334 269.395 347.822 269.395 344.569V329.991C269.422 328.332 269.836 326.703 270.605 325.234C271.374 323.764 272.476 322.495 273.822 321.527L287.78 313.428C290.223 312.078 292.208 313.522 292.208 316.775V331.354C292.183 333.013 291.769 334.642 291 336.112C290.231 337.582 289.128 338.851 287.78 339.818Z" fill="#7A51E6"/>
<path d="M322.823 319.57L308.865 327.669C306.422 329.019 304.438 327.574 304.438 324.321V309.742C304.462 308.084 304.876 306.454 305.645 304.984C306.414 303.514 307.517 302.245 308.865 301.279L322.823 293.179C325.266 291.762 327.25 293.26 327.25 296.527V311.106C327.223 312.764 326.809 314.393 326.04 315.863C325.271 317.332 324.17 318.602 322.823 319.57Z" fill="#7A51E6"/>
<path d="M357.879 299.308L343.921 307.407C341.478 308.825 339.494 307.326 339.494 304.06V289.494C339.518 287.836 339.931 286.205 340.7 284.735C341.469 283.265 342.572 281.996 343.921 281.031L357.879 272.931C360.322 271.514 362.307 273.012 362.307 276.279V290.804C362.289 292.47 361.879 294.108 361.11 295.585C360.34 297.063 359.233 298.338 357.879 299.308Z" fill="#7A51E6"/>
<g opacity="0.7">
<path d="M354.491 221.312L241.507 286.579C240.935 286.911 240.287 287.088 239.626 287.089C238.965 287.091 238.315 286.918 237.742 286.588C237.17 286.257 236.694 285.782 236.365 285.209C236.035 284.636 235.862 283.986 235.864 283.325V222.851C235.865 219.76 236.679 216.724 238.224 214.046C239.768 211.369 241.99 209.145 244.665 207.597L355.058 143.856C355.878 143.383 356.809 143.133 357.756 143.133C358.704 143.133 359.634 143.382 360.455 143.855C361.276 144.328 361.958 145.009 362.432 145.829C362.906 146.649 363.156 147.579 363.157 148.527V206.369C363.151 209.401 362.347 212.378 360.826 215.001C359.304 217.624 357.12 219.801 354.491 221.312Z" fill="white"/>
<path d="M253.736 320.906L239.778 329.005C237.335 330.423 235.351 328.924 235.351 325.658V311.092C235.376 309.432 235.789 307.8 236.558 306.328C237.327 304.856 238.43 303.584 239.778 302.615L253.736 294.516C256.179 293.099 258.164 294.597 258.164 297.864V312.388C258.148 314.056 257.739 315.697 256.97 317.177C256.2 318.657 255.092 319.935 253.736 320.906Z" fill="white"/>
<path d="M287.78 301.36L273.822 309.459C271.379 310.809 269.395 309.378 269.395 306.111V291.546C269.418 289.887 269.832 288.257 270.601 286.787C271.37 285.317 272.473 284.048 273.822 283.082L287.78 274.983C290.223 273.633 292.207 275.064 292.207 278.331V292.855C292.19 294.521 291.78 296.159 291.01 297.637C290.241 299.115 289.134 300.39 287.78 301.36Z" fill="white"/>
<path d="M322.823 281.112L308.865 289.211C306.422 290.561 304.438 289.13 304.438 285.863V271.284C304.465 269.626 304.879 267.997 305.648 266.528C306.417 265.058 307.519 263.789 308.865 262.821L322.823 254.722C325.266 253.372 327.251 254.816 327.251 258.083V272.607C327.233 274.273 326.823 275.911 326.054 277.389C325.284 278.866 324.178 280.142 322.823 281.112Z" fill="white"/>
<path d="M357.878 260.863L343.921 268.963C341.477 270.313 339.493 268.868 339.493 265.615V251.036C339.52 249.378 339.935 247.749 340.704 246.28C341.472 244.81 342.574 243.541 343.921 242.573L357.878 234.473C360.322 233.124 362.306 234.568 362.306 237.821V252.359C362.287 254.025 361.877 255.663 361.108 257.14C360.338 258.617 359.232 259.893 357.878 260.863Z" fill="white"/>
<path d="M253.736 359.364L239.778 367.463C237.335 368.813 235.351 367.369 235.351 364.116V349.537C235.376 347.878 235.789 346.248 236.558 344.779C237.327 343.309 238.43 342.04 239.778 341.073L253.736 332.974C256.179 331.556 258.164 333.068 258.164 336.322V350.86C258.143 352.525 257.731 354.162 256.962 355.639C256.193 357.116 255.088 358.392 253.736 359.364Z" fill="white"/>
<path d="M287.78 339.818L273.822 347.917C271.379 349.334 269.395 347.822 269.395 344.569V329.991C269.422 328.332 269.836 326.703 270.605 325.234C271.374 323.764 272.475 322.495 273.822 321.527L287.78 313.428C290.223 312.078 292.207 313.522 292.207 316.775V331.354C292.182 333.013 291.769 334.642 291 336.112C290.231 337.582 289.128 338.851 287.78 339.818Z" fill="white"/>
<path d="M322.823 319.569L308.865 327.669C306.422 329.019 304.438 327.574 304.438 324.321V309.742C304.463 308.084 304.876 306.454 305.645 304.984C306.414 303.514 307.517 302.245 308.865 301.279L322.823 293.179C325.266 291.762 327.251 293.26 327.251 296.527V311.106C327.224 312.764 326.809 314.393 326.04 315.863C325.272 317.332 324.17 318.602 322.823 319.569Z" fill="white"/>
<path d="M357.878 299.308L343.921 307.407C341.477 308.825 339.493 307.326 339.493 304.059V289.494C339.517 287.835 339.93 286.205 340.699 284.735C341.468 283.265 342.572 281.996 343.921 281.031L357.878 272.931C360.322 271.514 362.306 273.012 362.306 276.279V290.804C362.288 292.469 361.878 294.108 361.109 295.585C360.34 297.063 359.233 298.338 357.878 299.308Z" fill="white"/>
</g>
<path d="M214.185 400.981L141.616 442.854C140.905 443.267 140.098 443.486 139.275 443.487C138.453 443.489 137.645 443.273 136.933 442.862C136.221 442.451 135.629 441.86 135.219 441.147C134.809 440.435 134.594 439.626 134.596 438.804V243.747L214.144 197.851L214.185 400.981Z" fill="#7A51E6"/>
<path opacity="0.7" d="M214.185 400.981L141.616 442.854C140.905 443.267 140.098 443.486 139.275 443.487C138.453 443.489 137.645 443.273 136.933 442.862C136.221 442.451 135.629 441.86 135.219 441.147C134.809 440.435 134.594 439.626 134.596 438.804V243.747L214.144 197.851L214.185 400.981Z" fill="white"/>
<path d="M156.586 256.625C156.472 258.52 155.915 260.361 154.961 262.002C154.007 263.643 152.682 265.038 151.092 266.074C148.068 267.829 145.611 266.411 145.611 262.915C145.724 261.022 146.278 259.181 147.229 257.54C148.181 255.899 149.504 254.504 151.092 253.466C154.129 251.711 156.586 253.196 156.586 256.625Z" fill="#FAFAFA"/>
<path d="M156.586 277.642C156.472 279.537 155.915 281.379 154.961 283.02C154.007 284.661 152.682 286.055 151.092 287.091C148.068 288.846 145.611 287.429 145.611 283.933C145.713 282.028 146.263 280.173 147.215 278.52C148.167 276.866 149.495 275.461 151.092 274.416C154.129 272.729 156.586 274.146 156.586 277.642Z" fill="#FAFAFA"/>
<path d="M156.586 298.66C156.472 300.555 155.915 302.396 154.961 304.037C154.007 305.678 152.682 307.073 151.092 308.109C148.068 309.864 145.611 308.447 145.611 304.937C145.724 303.043 146.278 301.203 147.229 299.562C148.181 297.921 149.504 296.526 151.092 295.488C154.129 293.692 156.586 295.164 156.586 298.66Z" fill="#FAFAFA"/>
<path d="M156.586 319.678C156.472 321.572 155.915 323.414 154.961 325.055C154.007 326.696 152.682 328.09 151.092 329.127C148.068 330.881 145.611 329.451 145.611 325.954C145.724 324.061 146.278 322.22 147.229 320.579C148.181 318.938 149.504 317.543 151.092 316.505C154.129 314.75 156.586 316.168 156.586 319.678Z" fill="#FAFAFA"/>
<path d="M168.815 251.563C168.375 251.568 167.945 251.427 167.594 251.161C167.243 250.895 166.99 250.52 166.876 250.094C166.761 249.669 166.792 249.218 166.962 248.811C167.132 248.405 167.433 248.067 167.816 247.851L199.97 229.29C200.427 229.027 200.969 228.956 201.478 229.092C201.987 229.229 202.421 229.562 202.684 230.019C202.947 230.475 203.018 231.018 202.881 231.526C202.744 232.035 202.411 232.469 201.955 232.732L169.801 251.293C169.501 251.466 169.162 251.559 168.815 251.563Z" fill="#FAFAFA"/>
<path d="M168.815 272.58C168.375 272.586 167.945 272.444 167.594 272.178C167.243 271.912 166.99 271.537 166.876 271.112C166.761 270.686 166.792 270.235 166.962 269.829C167.132 269.423 167.433 269.085 167.816 268.868L199.97 250.294C200.426 250.038 200.964 249.971 201.469 250.107C201.974 250.244 202.405 250.572 202.67 251.023C202.801 251.248 202.885 251.496 202.919 251.754C202.953 252.012 202.935 252.274 202.868 252.524C202.8 252.775 202.683 253.01 202.524 253.216C202.365 253.422 202.167 253.594 201.941 253.723L169.787 272.297C169.493 272.473 169.158 272.57 168.815 272.58Z" fill="#FAFAFA"/>
<path d="M168.815 293.584C168.379 293.584 167.956 293.441 167.609 293.175C167.263 292.91 167.014 292.538 166.9 292.118C166.786 291.697 166.815 291.25 166.98 290.846C167.146 290.443 167.44 290.105 167.817 289.886L199.971 271.311C200.427 271.056 200.965 270.989 201.469 271.125C201.974 271.261 202.405 271.59 202.67 272.04C202.801 272.265 202.885 272.514 202.919 272.772C202.953 273.029 202.935 273.291 202.868 273.542C202.8 273.793 202.683 274.028 202.524 274.234C202.365 274.439 202.167 274.611 201.941 274.74L169.787 293.314C169.492 293.487 169.157 293.58 168.815 293.584Z" fill="#FAFAFA"/>
<path d="M168.815 314.602C168.375 314.607 167.945 314.466 167.594 314.2C167.243 313.934 166.99 313.559 166.876 313.133C166.761 312.708 166.792 312.257 166.962 311.851C167.132 311.444 167.433 311.106 167.816 310.89L199.97 292.343C200.426 292.087 200.964 292.02 201.469 292.156C201.974 292.292 202.405 292.621 202.67 293.072C202.801 293.296 202.885 293.545 202.919 293.803C202.953 294.06 202.935 294.322 202.868 294.573C202.8 294.824 202.683 295.059 202.524 295.265C202.365 295.47 202.167 295.643 201.941 295.771L169.787 314.332C169.494 314.509 169.158 314.602 168.815 314.602Z" fill="#FAFAFA"/>
<path d="M151.065 363.886C150.624 363.891 150.195 363.75 149.843 363.484C149.492 363.218 149.24 362.843 149.125 362.417C149.011 361.992 149.041 361.541 149.211 361.135C149.382 360.728 149.682 360.39 150.066 360.174L199.93 331.394C200.156 331.245 200.41 331.144 200.676 331.096C200.942 331.048 201.216 331.056 201.479 331.117C201.743 331.179 201.991 331.294 202.208 331.456C202.425 331.617 202.607 331.821 202.743 332.055C202.878 332.289 202.964 332.549 202.996 332.818C203.028 333.086 203.004 333.359 202.926 333.618C202.849 333.877 202.719 334.118 202.545 334.325C202.371 334.532 202.156 334.702 201.914 334.823L152.05 363.616C151.753 363.795 151.412 363.889 151.065 363.886Z" fill="#FAFAFA"/>
<path d="M151.065 381.434C150.624 381.439 150.195 381.298 149.843 381.032C149.492 380.766 149.24 380.391 149.125 379.966C149.011 379.54 149.041 379.089 149.211 378.683C149.382 378.277 149.682 377.939 150.066 377.722L199.93 348.929C200.386 348.673 200.924 348.606 201.429 348.743C201.933 348.879 202.365 349.208 202.63 349.658C202.76 349.883 202.845 350.132 202.878 350.389C202.912 350.647 202.895 350.909 202.827 351.16C202.759 351.411 202.643 351.646 202.484 351.851C202.325 352.057 202.127 352.229 201.901 352.358L152.037 381.151C151.745 381.333 151.408 381.431 151.065 381.434Z" fill="#FAFAFA"/>
<path d="M151.065 398.983C150.624 398.988 150.195 398.846 149.843 398.58C149.492 398.315 149.24 397.939 149.125 397.514C149.011 397.089 149.041 396.637 149.211 396.231C149.382 395.825 149.682 395.487 150.066 395.27L199.93 366.478C200.386 366.222 200.924 366.155 201.429 366.291C201.933 366.427 202.365 366.756 202.63 367.207C202.76 367.431 202.845 367.68 202.878 367.938C202.912 368.195 202.895 368.457 202.827 368.708C202.759 368.959 202.643 369.194 202.484 369.4C202.325 369.605 202.127 369.778 201.901 369.906L152.037 398.699C151.742 398.875 151.407 398.973 151.065 398.983Z" fill="#FAFAFA"/>
<path d="M151.065 416.45C150.624 416.455 150.195 416.314 149.843 416.048C149.492 415.782 149.24 415.407 149.125 414.982C149.011 414.556 149.041 414.105 149.211 413.699C149.382 413.293 149.682 412.955 150.066 412.738L199.93 383.945C200.156 383.815 200.406 383.73 200.664 383.696C200.923 383.663 201.186 383.68 201.438 383.748C201.69 383.815 201.926 383.932 202.133 384.091C202.34 384.25 202.513 384.448 202.643 384.674C202.774 384.9 202.858 385.15 202.892 385.408C202.926 385.667 202.909 385.93 202.841 386.182C202.773 386.434 202.656 386.67 202.498 386.877C202.339 387.083 202.14 387.257 201.914 387.387L152.05 416.18C151.75 416.353 151.411 416.446 151.065 416.45Z" fill="#FAFAFA"/>
<path d="M134.866 355.098C134.751 355.101 134.638 355.072 134.538 355.015C134.438 354.958 134.356 354.875 134.299 354.774C134.21 354.624 134.184 354.444 134.227 354.275C134.27 354.105 134.379 353.96 134.529 353.87L211.769 309.324C211.843 309.279 211.927 309.249 212.013 309.237C212.1 309.224 212.188 309.23 212.273 309.252C212.357 309.275 212.436 309.315 212.505 309.369C212.574 309.423 212.631 309.49 212.673 309.567C212.757 309.72 212.779 309.9 212.734 310.068C212.689 310.237 212.58 310.381 212.43 310.471L135.204 355.017C135.099 355.07 134.983 355.097 134.866 355.098Z" fill="#FAFAFA"/>
<path d="M140.455 226.941L380.611 87.9039C381.255 87.5257 381.988 87.3244 382.735 87.3204C383.482 87.3164 384.217 87.5099 384.865 87.8812C385.513 88.2525 386.051 88.7885 386.425 89.4349C386.8 90.0813 386.997 90.8151 386.996 91.5621V102.01L134.637 247.392V239.211C134.637 235.027 136.851 229.047 140.455 226.941Z" fill="#E6E6E6"/>
<path d="M383.068 88.4304C383.42 88.4304 383.768 88.4992 384.094 88.6329C384.256 88.6976 384.407 88.7889 384.539 88.9029C385.144 89.4957 385.608 90.2175 385.896 91.0146C386.183 91.8116 386.287 92.6632 386.199 93.506V292.424C386.199 297.229 383.189 303.034 379.612 305.085L140.954 442.611C140.28 443.032 139.507 443.269 138.713 443.299C138.355 443.303 138.001 443.23 137.674 443.083L137.296 442.881C136.202 442.125 135.581 440.437 135.581 438.224V239.306C135.638 236.884 136.233 234.504 137.323 232.341C138.352 230.017 140.03 228.039 142.155 226.644L380.813 89.1324C381.489 88.7029 382.267 88.4607 383.068 88.4304ZM383.068 87.229C382.061 87.2599 381.079 87.553 380.22 88.0795L141.615 225.605C139.281 227.119 137.434 229.275 136.297 231.814C135.124 234.141 134.488 236.701 134.434 239.306V438.224C134.434 440.991 135.311 442.975 136.729 443.907L137.188 444.163C137.681 444.396 138.221 444.516 138.767 444.514C139.776 444.479 140.757 444.181 141.615 443.65L380.273 306.138C384.242 303.843 387.455 297.702 387.455 292.424V93.506C387.455 90.8062 386.631 88.9029 385.309 87.931C385.086 87.7581 384.841 87.6172 384.58 87.5125C384.118 87.3204 383.622 87.224 383.122 87.229H383.068Z" fill="#F0F0F0"/>
<path d="M450.332 264.697V270.974L478.099 260.958L499.94 214.954L489.694 213.591L471.228 252.008L450.332 264.697Z" fill="#37474F"/>
<path d="M450.332 264.697L457.203 268.261V274.538L450.332 270.974V264.697Z" fill="#455A64"/>
<path d="M457.203 268.261V274.538L480.853 260.958L501.236 217.208L496.579 217.154L478.099 255.572L457.203 268.261Z" fill="#263238"/>
<path d="M511.427 307.772L551.694 226.914L565.193 232.26L532.364 317.747L511.427 307.772Z" fill="#37474F"/>
<path d="M565.193 197.757C562.871 196.407 559.645 196.596 556.095 198.648C549.008 202.697 543.258 212.686 543.258 220.88C543.258 225.348 544.985 228.358 547.699 229.506L562.871 238.348L580.973 206.909L565.193 197.757Z" fill="#7A51E6"/>
<path d="M581.349 228.045C586.362 219.361 586.36 209.973 581.343 207.077C576.327 204.181 568.196 208.872 563.182 217.556C558.169 226.24 558.171 235.628 563.188 238.524C568.204 241.42 576.335 236.729 581.349 228.045Z" fill="#7A51E6"/>
<path opacity="0.3" d="M581.349 228.045C586.362 219.361 586.36 209.973 581.343 207.077C576.327 204.181 568.196 208.872 563.182 217.556C558.169 226.24 558.171 235.628 563.188 238.524C568.204 241.42 576.335 236.729 581.349 228.045Z" fill="black"/>
<path d="M578.773 219.044C578.649 221.304 577.995 223.502 576.865 225.463C575.735 227.423 574.16 229.09 572.266 230.329C568.662 232.408 565.746 230.721 565.746 226.563C565.868 224.302 566.523 222.101 567.655 220.14C568.788 218.179 570.368 216.513 572.266 215.278C575.857 213.199 578.773 214.887 578.773 219.044Z" fill="#7A51E6"/>
<path opacity="0.6" d="M578.773 219.044C578.649 221.304 577.995 223.502 576.865 225.463C575.735 227.423 574.16 229.09 572.266 230.329C568.662 232.408 565.746 230.721 565.746 226.563C565.868 224.302 566.523 222.101 567.655 220.14C568.788 218.179 570.368 216.513 572.266 215.278C575.857 213.199 578.773 214.887 578.773 219.044Z" fill="black"/>
<path d="M502.329 211.89C502.802 212.659 553.625 222.797 553.625 222.797C553.625 222.797 558.376 222.082 558.376 217.6C558.354 216.319 557.929 215.078 557.161 214.052C556.393 213.027 555.32 212.27 554.097 211.89L503.382 205.316L502.329 211.89Z" fill="#37474F"/>
<path d="M498.55 193.194C496.943 192.263 494.716 192.398 492.259 193.815C489.673 195.498 487.521 197.767 485.977 200.439C484.434 203.111 483.543 206.109 483.377 209.19C483.377 212.281 484.578 214.36 486.455 215.157L496.957 221.245L509.47 199.512L498.55 193.194Z" fill="#7A51E6"/>
<path d="M512.318 205.397C512.151 208.488 511.253 211.494 509.7 214.171C508.147 216.849 505.982 219.12 503.382 220.799C498.482 223.634 494.5 221.339 494.5 215.683C494.663 212.596 495.552 209.591 497.095 206.912C498.639 204.233 500.793 201.957 503.382 200.268C508.336 197.433 512.318 199.728 512.318 205.397Z" fill="#7A51E6"/>
<path opacity="0.3" d="M512.318 205.397C512.151 208.488 511.253 211.494 509.7 214.171C508.147 216.849 505.982 219.12 503.382 220.799C498.482 223.634 494.5 221.339 494.5 215.683C494.663 212.596 495.552 209.591 497.095 206.912C498.639 204.233 500.793 201.957 503.382 200.268C508.336 197.433 512.318 199.728 512.318 205.397Z" fill="black"/>
<path d="M507.945 207.921C507.856 209.484 507.402 211.004 506.619 212.359C505.836 213.714 504.746 214.867 503.436 215.724C500.953 217.154 498.928 215.994 498.928 213.118C499.013 211.555 499.466 210.034 500.249 208.678C501.033 207.323 502.125 206.171 503.436 205.316C505.92 203.872 507.945 205.046 507.945 207.921Z" fill="#7A51E6"/>
<path opacity="0.6" d="M507.945 207.921C507.856 209.484 507.402 211.004 506.619 212.359C505.836 213.714 504.746 214.867 503.436 215.724C500.953 217.154 498.928 215.994 498.928 213.118C499.013 211.555 499.466 210.034 500.249 208.678C501.033 207.323 502.125 206.171 503.436 205.316C505.92 203.872 507.945 205.046 507.945 207.921Z" fill="black"/>
<path d="M442.716 407.504C448.38 389.583 444.587 372.406 434.244 369.137C423.901 365.867 410.925 377.745 405.26 395.666C399.596 413.586 403.389 430.764 413.732 434.033C424.075 437.302 437.051 425.424 442.716 407.504Z" fill="#37474F"/>
<path d="M411.955 433.27L428.869 443.704L454.301 381.056L452.343 379.733L411.955 433.27Z" fill="#37474F"/>
<path d="M459.996 418.123C465.66 400.203 461.867 383.025 451.524 379.756C441.182 376.487 428.205 388.364 422.541 406.285C416.877 424.206 420.67 441.383 431.013 444.652C441.356 447.921 454.332 436.044 459.996 418.123Z" fill="#263238"/>
<path d="M560.957 406.718C566.434 389.387 562.49 372.688 552.147 369.419C541.804 366.15 528.979 377.549 523.502 394.879C518.024 412.21 521.968 428.909 532.311 432.178C542.654 435.448 555.479 424.048 560.957 406.718Z" fill="#37474F"/>
<path d="M529.651 431.029L547.55 442.138L571.551 378.532L554.07 370.203L529.651 431.029Z" fill="#37474F"/>
<path d="M437.32 307.772L502.33 344.691L551.695 315.965L487.373 279.154L437.32 307.772Z" fill="#7A51E6"/>
<path opacity="0.2" d="M551.694 315.965L534.834 325.779H534.821L532.31 327.25L502.329 344.691L437.306 307.772L467.988 290.237L470.351 288.873L487.373 279.154L551.694 315.965Z" fill="black"/>
<path d="M551.694 315.965V401.926L534.834 411.712L532.485 413.062L516.287 422.43C512.237 409.485 501.114 406.691 490.437 416.464C485.873 420.842 482.265 426.119 479.84 431.96V411.915L502.275 344.691L532.256 327.25L534.767 325.779L551.694 315.965Z" fill="#7A51E6"/>
<path opacity="0.4" d="M551.694 315.965V401.926L534.834 411.712L532.485 413.062L516.287 422.43C512.237 409.485 501.114 406.691 490.437 416.464C485.873 420.842 482.265 426.119 479.84 431.96V411.915L502.275 344.691L532.256 327.25L534.767 325.779L551.694 315.965Z" fill="black"/>
<path d="M414.884 374.995L479.894 411.914V431.974L466.463 424.644V445.864L427.519 423.537V402.168L414.884 395.041V374.995Z" fill="#7A51E6"/>
<path d="M437.319 307.772L414.884 374.995L479.894 411.915L502.329 344.691L437.319 307.772Z" fill="#7A51E6"/>
<path opacity="0.2" d="M437.319 307.772L414.884 374.995L479.894 411.915L502.329 344.691L437.319 307.772Z" fill="white"/>
<path d="M479.894 431.974L466.477 424.63C462.197 433.108 459.903 442.732 460.713 451.074C462.211 466.341 473.536 471.485 486.009 462.562C494.702 456.339 501.641 444.946 504.556 433.431L479.894 431.974Z" fill="#37474F"/>
<path d="M468.096 465.302L485.996 476.411L511.427 413.777L509.484 412.441L468.096 465.302Z" fill="#37474F"/>
<path d="M515.233 449.546C520.897 431.625 517.104 414.448 506.761 411.179C496.418 407.91 483.442 419.787 477.778 437.708C472.114 455.628 475.907 472.806 486.249 476.075C496.592 479.344 509.569 467.467 515.233 449.546Z" fill="#37474F"/>
<path d="M517.133 450.848C522.797 432.927 519.004 415.75 508.661 412.481C498.318 409.212 485.342 421.089 479.677 439.01C474.013 456.93 477.806 474.108 488.149 477.377C498.492 480.646 511.468 468.769 517.133 450.848Z" fill="#455A64"/>
<path d="M508.27 448.55C510.827 440.461 509.114 432.706 504.443 431.23C499.773 429.754 493.914 435.115 491.357 443.205C488.801 451.294 490.514 459.049 495.184 460.525C499.854 462.001 505.713 456.64 508.27 448.55Z" fill="#263238"/>
<path d="M507.297 438.331C507.65 441.564 507.326 444.835 506.346 447.935C505.365 451.036 503.749 453.898 501.6 456.339C497.551 460.51 493.393 459.201 492.435 453.437C492.078 450.205 492.399 446.934 493.377 443.834C494.356 440.733 495.97 437.871 498.118 435.429C502.221 431.258 506.325 432.554 507.297 438.331Z" fill="#7A51E6"/>
<path d="M504.88 440.653C505.252 445.05 503.874 449.416 501.046 452.802C498.347 455.651 495.782 454.841 495.228 450.966C494.862 446.568 496.244 442.203 499.076 438.818C501.735 435.969 504.34 436.779 504.88 440.653Z" fill="#263238"/>
<path d="M576.774 415.279C582.438 397.359 578.645 380.181 568.302 376.912C557.96 373.643 544.983 385.52 539.319 403.441C533.655 421.362 537.448 438.539 547.791 441.808C558.134 445.077 571.11 433.2 576.774 415.279Z" fill="#37474F"/>
<path d="M578.664 416.568C584.328 398.648 580.536 381.47 570.193 378.201C559.85 374.932 546.873 386.809 541.209 404.73C535.545 422.651 539.338 439.828 549.681 443.097C560.024 446.366 573 434.489 578.664 416.568Z" fill="#455A64"/>
<path d="M570.593 403.113C571.202 406.839 570.926 410.655 569.789 414.254C568.652 417.853 566.685 421.135 564.046 423.834C558.93 428.505 553.584 426.817 552.086 420.054C550.587 413.291 553.517 404.018 558.633 399.334C563.749 394.65 569.094 396.35 570.593 403.113Z" fill="#263238"/>
<path d="M567.919 413.673C570.141 406.643 569.038 400.026 565.455 398.893C561.873 397.761 557.167 402.542 554.945 409.572C552.723 416.603 553.826 423.22 557.409 424.352C560.991 425.485 565.697 420.703 567.919 413.673Z" fill="#7A51E6"/>
<path d="M566.435 406.367C566.807 410.765 565.424 415.133 562.588 418.515C559.888 421.364 557.323 420.54 556.783 416.68C556.409 412.281 557.792 407.912 560.63 404.531C563.29 401.682 565.895 402.506 566.435 406.367Z" fill="#263238"/>
<path d="M495.472 347.08L485.915 375.684L483.431 383.135L478.355 398.362L476.56 403.734L467.529 398.618L421.755 372.62L440.667 315.938L448.388 320.325L461.009 327.507L471.228 333.311L476.236 336.16L495.472 347.08Z" fill="#37474F"/>
<path d="M534.834 325.779V411.712L532.485 413.062C532.369 412.871 532.308 412.651 532.31 412.427V327.25L468.461 290.696C468.263 290.59 468.099 290.431 467.988 290.237L470.351 288.887L534.821 325.792L534.834 325.779Z" fill="#7A51E6"/>
<g opacity="0.5">
<path d="M534.835 325.779V411.712L532.486 413.062C532.369 412.871 532.309 412.651 532.31 412.427V327.25L468.461 290.696C468.264 290.59 468.1 290.431 467.989 290.237L470.351 288.887L534.821 325.792L534.835 325.779Z" fill="black"/>
</g>
<path d="M478.355 398.362L476.56 403.734L467.529 398.618L448.388 320.325L461.009 327.507L478.355 398.362Z" fill="#455A64"/>
<path d="M485.915 375.684L483.431 383.135L471.228 333.311L476.236 336.159L485.915 375.684Z" fill="#455A64"/>
<path d="M528.22 382.636L485.915 407.824L505.555 348.983L528.22 335.795V382.636Z" fill="#37474F"/>
<path d="M547.685 371.337L539.262 376.197V329.262L547.685 324.389V371.337Z" fill="#37474F"/>
<path d="M349.213 235.985V321.027C349.142 321.537 349.225 322.056 349.451 322.517C349.677 322.979 350.036 323.363 350.482 323.619L353.735 325.415V322.512L354.194 235.04L349.928 232.881C349.468 233.852 349.224 234.911 349.213 235.985Z" fill="#7A51E6"/>
<path d="M349.942 232.948L354.208 235.108L457.365 174.633L459.822 173.203L456.434 171.286H456.326C456.008 171.12 455.65 171.046 455.292 171.072C454.934 171.098 454.591 171.224 454.301 171.434L352.277 230.208C351.253 230.879 350.442 231.83 349.942 232.948Z" fill="#7A51E6"/>
<path opacity="0.2" d="M349.942 232.948L354.208 235.108L457.365 174.633L459.822 173.203L456.434 171.286H456.326C456.008 171.12 455.65 171.046 455.292 171.072C454.934 171.098 454.591 171.224 454.301 171.434L352.277 230.208C351.253 230.879 350.442 231.83 349.942 232.948Z" fill="white"/>
<path d="M352.912 237.848V322.364C352.865 322.815 352.929 323.271 353.099 323.692C353.268 324.113 353.537 324.486 353.884 324.78L354.086 324.888C354.393 325.008 354.724 325.052 355.051 325.014C355.378 324.976 355.691 324.859 355.962 324.672L457.365 266.236C458.293 265.573 459.053 264.701 459.583 263.69C460.113 262.68 460.398 261.559 460.416 260.418V175.902C460.459 175.463 460.4 175.02 460.243 174.608C460.086 174.196 459.836 173.825 459.511 173.526C459.416 173.455 459.312 173.396 459.201 173.351C458.897 173.246 458.573 173.213 458.254 173.255C457.935 173.297 457.631 173.413 457.365 173.594L355.962 232.017C354.963 232.676 354.179 233.615 353.708 234.716C353.212 235.688 352.94 236.758 352.912 237.848Z" fill="#7A51E6"/>
<path opacity="0.2" d="M352.912 237.848V322.364C352.865 322.815 352.929 323.271 353.099 323.692C353.268 324.113 353.537 324.486 353.884 324.78L354.086 324.888C354.393 325.008 354.724 325.052 355.051 325.014C355.378 324.976 355.691 324.859 355.962 324.672L457.365 266.236C458.293 265.573 459.053 264.701 459.583 263.69C460.113 262.68 460.398 261.559 460.416 260.418V175.902C460.459 175.463 460.4 175.02 460.243 174.608C460.086 174.196 459.836 173.825 459.511 173.526C459.416 173.455 459.312 173.396 459.201 173.351C458.897 173.246 458.573 173.213 458.254 173.255C457.935 173.297 457.631 173.413 457.365 173.594L355.962 232.017C354.963 232.676 354.179 233.615 353.708 234.716C353.212 235.688 352.94 236.758 352.912 237.848Z" fill="black"/>
<path d="M389.953 235.929L378.3 292.559L371.82 296.283L383.473 239.653L389.953 235.929ZM409.326 224.795L397.673 281.425L391.193 285.149L402.846 228.519L409.326 224.795Z" fill="#FAFAFA"/>
<path d="M458.985 173.392C459.134 173.389 459.282 173.421 459.417 173.486C459.492 173.506 459.561 173.543 459.619 173.594C459.875 173.849 460.072 174.159 460.193 174.5C460.314 174.841 460.358 175.205 460.321 175.565V260.607C460.298 261.662 460.033 262.698 459.546 263.634C459.059 264.57 458.364 265.382 457.513 266.006L355.49 324.74C355.204 324.927 354.873 325.035 354.531 325.05C354.382 325.049 354.235 325.017 354.099 324.956L353.937 324.875C353.664 324.624 353.454 324.313 353.325 323.965C353.196 323.618 353.151 323.245 353.195 322.877V237.835C353.222 236.798 353.475 235.78 353.937 234.851C354.384 233.864 355.1 233.022 356.003 232.422L458.026 173.689C458.315 173.51 458.645 173.408 458.985 173.392ZM458.985 172.879C458.555 172.893 458.137 173.019 457.77 173.243L355.746 232.03C354.738 232.684 353.949 233.624 353.478 234.73C352.973 235.722 352.701 236.816 352.682 237.929V322.971C352.637 323.425 352.702 323.882 352.871 324.305C353.04 324.728 353.309 325.104 353.654 325.401L353.856 325.509C354.068 325.607 354.298 325.658 354.531 325.657C354.963 325.644 355.383 325.513 355.746 325.279L457.77 266.506C458.701 265.835 459.464 264.957 459.996 263.94C460.528 262.922 460.815 261.795 460.834 260.647V175.605C460.877 175.163 460.816 174.717 460.657 174.302C460.498 173.888 460.244 173.516 459.916 173.216C459.821 173.144 459.716 173.085 459.606 173.041C459.409 172.959 459.198 172.918 458.985 172.919V172.879Z" fill="#7A51E6"/>
<path d="M467.138 168.518L490.693 198.418L496.417 201.496L472.2 165.643L467.138 168.518Z" fill="#455A64"/>
<path d="M451.574 177.347V182.031L473.118 169.76L496.417 201.496L499.009 198.891L474.306 164.455L451.574 177.347Z" fill="#263238"/>
<path d="M474.306 164.455L466.463 159.69L443.731 172.811L451.574 177.347L474.306 164.455Z" fill="#37474F"/>
<path d="M443.731 172.811V177.347L451.574 182.031V177.347L443.731 172.811Z" fill="#455A64"/>
<path d="M457.27 429.733C456.933 429.729 456.602 429.636 456.312 429.463L435.173 417.314C434.376 416.852 433.714 416.189 433.254 415.39C432.795 414.592 432.553 413.686 432.554 412.765V397.093C432.55 396.755 432.637 396.423 432.805 396.131C432.974 395.839 433.218 395.597 433.513 395.432C433.805 395.26 434.138 395.17 434.478 395.17C434.817 395.17 435.15 395.26 435.443 395.432L456.568 407.581C457.367 408.042 458.031 408.705 458.493 409.504C458.955 410.302 459.199 411.208 459.201 412.13V427.748C459.201 428.085 459.112 428.416 458.944 428.707C458.776 428.998 458.534 429.241 458.242 429.409C457.953 429.601 457.617 429.713 457.27 429.733ZM456.892 428.477C457.011 428.543 457.144 428.576 457.279 428.575C457.415 428.573 457.547 428.537 457.664 428.469C457.781 428.401 457.878 428.304 457.946 428.187C458.015 428.07 458.051 427.938 458.053 427.802V412.184C458.058 411.464 457.871 410.754 457.51 410.13C457.149 409.506 456.628 408.99 456.001 408.634L434.862 396.485C434.746 396.416 434.613 396.38 434.478 396.38C434.342 396.38 434.209 396.416 434.093 396.485C433.974 396.554 433.876 396.652 433.807 396.771C433.738 396.889 433.702 397.023 433.702 397.16V412.778C433.703 413.5 433.892 414.208 434.252 414.834C434.612 415.459 435.13 415.979 435.753 416.342L456.892 428.477Z" fill="#455A64"/>
<path d="M433.406 398.117L432.832 399.11L458.317 413.824L458.891 412.83L433.406 398.117Z" fill="#455A64"/>
<path d="M433.407 402.463L432.834 403.457L458.319 418.171L458.892 417.177L433.407 402.463Z" fill="#455A64"/>
<path d="M433.407 406.763L432.834 407.757L458.319 422.47L458.892 421.477L433.407 406.763Z" fill="#455A64"/>
<path d="M433.409 411.096L432.835 412.09L458.32 426.803L458.894 425.81L433.409 411.096Z" fill="#455A64"/>
<path d="M423.928 393.705L414.884 388.481V383.135L423.928 388.359V393.705Z" fill="white"/>
<path d="M479.894 425.17L470.85 419.946V414.614L479.894 419.825V425.17Z" fill="white"/>
<path d="M375.144 147.19V193.977C375.106 194.258 375.152 194.545 375.277 194.799C375.402 195.054 375.6 195.266 375.846 195.408L377.628 196.393V194.801L377.844 146.691L375.495 145.517C375.256 146.042 375.136 146.613 375.144 147.19Z" fill="#7A51E6"/>
<path d="M375.535 145.517L377.884 146.691L434.579 113.444L435.929 112.661L434.066 111.608C433.889 111.519 433.692 111.479 433.495 111.493C433.297 111.508 433.108 111.575 432.946 111.689L376.845 144.086C376.28 144.427 375.825 144.924 375.535 145.517Z" fill="#7A51E6"/>
<path opacity="0.2" d="M375.535 145.517L377.884 146.691L434.579 113.444L435.929 112.661L434.066 111.608C433.889 111.519 433.692 111.479 433.495 111.493C433.297 111.508 433.108 111.575 432.946 111.689L376.845 144.086C376.28 144.427 375.825 144.924 375.535 145.517Z" fill="white"/>
<path d="M377.169 148.216V194.693C377.138 194.944 377.17 195.198 377.261 195.434C377.353 195.67 377.502 195.879 377.695 196.042L377.803 196.11C377.973 196.175 378.157 196.197 378.338 196.176C378.519 196.155 378.692 196.091 378.843 195.988L434.606 163.861C435.115 163.493 435.532 163.01 435.822 162.453C436.113 161.895 436.269 161.277 436.28 160.649V114.159C436.312 113.91 436.283 113.658 436.196 113.423C436.109 113.188 435.966 112.977 435.78 112.809C435.733 112.768 435.678 112.736 435.618 112.715C435.452 112.653 435.273 112.632 435.097 112.653C434.922 112.675 434.753 112.737 434.606 112.836L378.843 144.977C378.299 145.329 377.868 145.831 377.601 146.421C377.32 146.978 377.173 147.593 377.169 148.216Z" fill="#7A51E6"/>
<path opacity="0.2" d="M377.169 148.216V194.693C377.138 194.944 377.17 195.198 377.261 195.434C377.353 195.67 377.502 195.879 377.695 196.042L377.803 196.11C377.973 196.175 378.157 196.197 378.338 196.176C378.519 196.155 378.692 196.091 378.843 195.988L434.606 163.861C435.115 163.493 435.532 163.01 435.822 162.453C436.113 161.895 436.269 161.277 436.28 160.649V114.159C436.312 113.91 436.283 113.658 436.196 113.423C436.109 113.188 435.966 112.977 435.78 112.809C435.733 112.768 435.678 112.736 435.618 112.715C435.452 112.653 435.273 112.632 435.097 112.653C434.922 112.675 434.753 112.737 434.606 112.836L378.843 144.977C378.299 145.329 377.868 145.831 377.601 146.421C377.32 146.978 377.173 147.593 377.169 148.216Z" fill="black"/>
<path d="M387.46 168.562V165.478L398.155 153.9V157.448L390.833 165.047L390.931 164.806V165.244L390.833 165.117L398.155 164.299V167.847L387.46 168.562ZM408.144 143.524L403.131 167.888L400.343 169.49L405.356 145.126L408.144 143.524ZM421.029 149.27L410.334 160.848V157.3L417.656 149.701L417.557 149.942V149.504L417.656 149.631L410.334 150.449V146.901L421.029 146.186V149.27Z" fill="#FAFAFA"/>
<path d="M435.497 112.809C435.577 112.79 435.66 112.79 435.74 112.809H435.848C435.988 112.952 436.094 113.124 436.16 113.313C436.225 113.502 436.248 113.704 436.226 113.902V160.649C436.215 161.231 436.071 161.802 435.804 162.32C435.537 162.837 435.155 163.286 434.687 163.632L378.586 196.029C378.428 196.128 378.246 196.184 378.06 196.191C377.979 196.206 377.897 196.206 377.817 196.191H377.736C377.586 196.05 377.471 195.878 377.399 195.686C377.326 195.494 377.298 195.288 377.317 195.084V148.243C377.329 147.67 377.473 147.106 377.736 146.596C377.969 146.043 378.364 145.572 378.87 145.247L434.97 112.917C435.129 112.818 435.31 112.762 435.497 112.755M435.497 112.472C435.258 112.481 435.026 112.551 434.822 112.674L378.721 145.071C378.178 145.43 377.747 145.935 377.479 146.529C377.201 147.078 377.049 147.682 377.034 148.297V195.043C377.006 195.296 377.04 195.551 377.134 195.786C377.228 196.022 377.379 196.23 377.574 196.393H377.682C377.8 196.447 377.929 196.475 378.06 196.474C378.294 196.465 378.522 196.396 378.721 196.272L434.822 163.875C435.335 163.506 435.756 163.022 436.049 162.462C436.342 161.902 436.499 161.281 436.509 160.649V113.97C436.542 113.721 436.514 113.468 436.427 113.233C436.34 112.998 436.197 112.787 436.01 112.62C435.956 112.576 435.897 112.54 435.834 112.512C435.723 112.492 435.608 112.492 435.497 112.512V112.472Z" fill="#7A51E6"/>
<path d="M375.144 74.5941V121.205C375.144 121.948 375.414 122.461 375.846 122.555L377.628 123.541V121.948L377.884 74.0272L375.549 72.8528C375.281 73.3942 375.143 73.9902 375.144 74.5941Z" fill="#7A51E6"/>
<path d="M375.535 72.9203L377.871 74.0947L434.39 40.9688L435.74 40.1858L433.877 39.1329C433.702 39.0377 433.504 38.9947 433.305 39.009C433.106 39.0234 432.916 39.0945 432.757 39.2139L376.872 71.4085C376.287 71.7701 375.823 72.296 375.535 72.9203Z" fill="#7A51E6"/>
<path opacity="0.2" d="M375.535 72.9203L377.871 74.0947L434.39 40.9688L435.74 40.1858L433.877 39.1329C433.702 39.0377 433.504 38.9947 433.305 39.009C433.106 39.0234 432.916 39.0945 432.757 39.2139L376.872 71.4085C376.287 71.7701 375.823 72.296 375.535 72.9203Z" fill="white"/>
<path d="M377.155 75.6065V121.907C377.127 122.159 377.162 122.414 377.256 122.65C377.35 122.885 377.501 123.094 377.695 123.257H377.803C377.971 123.324 378.152 123.348 378.332 123.327C378.511 123.306 378.682 123.24 378.829 123.136L434.39 91.2111C434.895 90.8422 435.308 90.3614 435.596 89.8064C435.884 89.2513 436.039 88.6371 436.05 88.0119V41.6706C436.082 41.422 436.054 41.1694 435.967 40.9343C435.88 40.6992 435.737 40.4887 435.551 40.3208L435.389 40.2263C435.224 40.167 435.047 40.1483 434.873 40.1718C434.699 40.1953 434.534 40.2603 434.39 40.3613L378.829 72.4208C378.289 72.7775 377.859 73.2777 377.587 73.8652C377.315 74.406 377.167 75.0011 377.155 75.6065Z" fill="#7A51E6"/>
<path opacity="0.2" d="M377.155 75.6065V121.907C377.127 122.159 377.162 122.414 377.256 122.65C377.35 122.885 377.501 123.094 377.695 123.257H377.803C377.971 123.324 378.152 123.348 378.332 123.327C378.511 123.306 378.682 123.24 378.829 123.136L434.39 91.2111C434.895 90.8422 435.308 90.3614 435.596 89.8064C435.884 89.2513 436.039 88.6371 436.05 88.0119V41.6706C436.082 41.422 436.054 41.1694 435.967 40.9343C435.88 40.6992 435.737 40.4887 435.551 40.3208L435.389 40.2263C435.224 40.167 435.047 40.1483 434.873 40.1718C434.699 40.1953 434.534 40.2603 434.39 40.3613L378.829 72.4208C378.289 72.7775 377.859 73.2777 377.587 73.8652C377.315 74.406 377.167 75.0011 377.155 75.6065Z" fill="black"/>
<path d="M390.848 90.4843V88.2419C391.963 87.6007 392.737 86.8994 393.169 86.1379C393.601 85.3764 393.817 84.423 393.817 83.2776V80.8121C393.817 79.4361 393.982 78.2409 394.31 77.2263C394.646 76.2006 395.11 75.3053 395.703 74.5404C396.303 73.7718 397.012 73.0815 397.831 72.4695C398.65 71.8575 399.547 71.2717 400.52 70.7121V74.2598C399.759 74.6971 399.179 75.146 398.779 75.6063C398.386 76.0555 398.118 76.5589 397.976 77.1164C397.835 77.6665 397.764 78.3023 397.764 79.0237V82.2814C397.764 82.8466 397.673 83.4377 397.493 84.0547C397.312 84.6642 396.977 85.3069 396.487 85.9827C395.997 86.6511 395.297 87.3619 394.388 88.115C393.479 88.8607 392.299 89.6505 390.848 90.4843ZM400.52 98.9488C399.547 99.5084 398.65 99.9529 397.831 100.282C397.012 100.612 396.303 100.737 395.703 100.657C395.11 100.574 394.646 100.213 394.31 99.5724C393.982 98.9359 393.817 97.9296 393.817 96.5537V94.0769C393.817 92.9316 393.601 92.2264 393.169 91.9615C392.737 91.6967 391.963 91.8848 390.848 92.5259V90.2835C392.299 89.4496 393.479 88.8867 394.388 88.5947C395.297 88.2953 395.997 88.2019 396.487 88.3144C396.977 88.4195 397.312 88.6768 397.493 89.0862C397.673 89.4882 397.764 89.9755 397.764 90.5482V93.8059C397.764 94.5199 397.835 95.0704 397.976 95.4574C398.118 95.8519 398.386 96.0476 398.779 96.0447C399.179 96.0455 399.759 95.8272 400.52 95.3899V98.9488ZM390.848 92.5259V88.2419L394.32 86.2462V90.5302L390.848 92.5259ZM411.453 78.4414V80.6838C410.344 81.3213 409.57 82.0226 409.131 82.7878C408.699 83.5493 408.483 84.5027 408.483 85.6481V88.1248C408.483 89.5007 408.316 90.6979 407.98 91.7161C407.652 92.7381 407.187 93.6335 406.588 94.4021C405.994 95.1669 405.288 95.8554 404.469 96.4674C403.657 97.0756 402.76 97.6614 401.78 98.2247V94.6659C402.541 94.2286 403.118 93.7816 403.512 93.325C403.911 92.8721 404.182 92.3668 404.324 91.8093C404.466 91.2592 404.537 90.6272 404.537 89.9131V86.6555C404.537 86.0828 404.627 85.4917 404.808 84.8822C404.988 84.2652 405.324 83.6225 405.814 82.9541C406.304 82.2783 407.003 81.5675 407.913 80.8218C408.822 80.0687 410.002 79.2752 411.453 78.4414ZM401.78 69.9881C402.76 69.4247 403.657 68.9803 404.469 68.6546C405.288 68.3253 405.994 68.2021 406.588 68.2851C407.187 68.3644 407.652 68.726 407.98 69.37C408.316 70.0029 408.483 71.0073 408.483 72.3832V74.8488C408.483 75.9941 408.699 76.6993 409.131 76.9642C409.57 77.2253 410.344 77.0372 411.453 76.3998V78.6422C410.002 79.4761 408.822 80.0427 407.913 80.3421C407.003 80.6341 406.304 80.7275 405.814 80.6225C405.324 80.5099 404.988 80.2527 404.808 79.8507C404.627 79.4413 404.537 78.9539 404.537 78.3887V75.131C404.537 74.4096 404.466 73.8553 404.324 73.4683C404.182 73.0738 403.911 72.8799 403.512 72.8866C403.118 72.8821 402.541 73.0985 401.78 73.5358V69.9881ZM411.453 76.3998V80.6838L407.98 82.6795V78.3955L411.453 76.3998Z" fill="#FAFAFA"/>
<path d="M435.267 40.3073C435.348 40.2944 435.43 40.2944 435.51 40.3073H435.618C435.757 40.4486 435.862 40.6186 435.928 40.8052C435.993 40.9918 436.016 41.1905 435.996 41.3872V87.9579C435.986 88.538 435.842 89.1078 435.575 89.623C435.308 90.1381 434.925 90.5846 434.458 90.9276L378.573 123.136C378.414 123.235 378.233 123.291 378.046 123.298C377.971 123.321 377.892 123.321 377.817 123.298H377.722C377.577 123.157 377.466 122.986 377.396 122.797C377.326 122.608 377.299 122.405 377.317 122.204V75.6335C377.326 75.0654 377.465 74.5068 377.722 74.0002C377.964 73.4513 378.357 72.983 378.856 72.6503L434.741 40.4558C434.899 40.3566 435.081 40.3008 435.267 40.2938M435.267 40.0103C435.032 40.0123 434.802 40.0826 434.606 40.2128L378.708 72.4208C378.164 72.7795 377.734 73.2851 377.466 73.8787C377.191 74.4236 377.044 75.0235 377.034 75.6335V122.258C377.002 122.511 377.035 122.767 377.129 123.003C377.224 123.239 377.377 123.447 377.574 123.608H377.682C377.795 123.663 377.92 123.691 378.046 123.689C378.281 123.68 378.509 123.61 378.708 123.487L434.606 91.2786C435.115 90.9098 435.532 90.4275 435.822 89.8699C436.113 89.3122 436.269 88.6946 436.28 88.0659V41.4952C436.311 41.2466 436.281 40.9943 436.194 40.7595C436.108 40.5246 435.966 40.314 435.78 40.1453C435.73 40.101 435.67 40.0687 435.605 40.0508C435.5 40.0001 435.384 39.9769 435.267 39.9833V40.0103Z" fill="#7A51E6"/>
<path d="M395.284 341.276L389.804 337.604L380.098 362.887L369.744 368.489L367.288 364.939L379.653 339.899L374.172 336.214C373.686 336.456 373.2 336.699 372.728 336.983C361.335 343.543 352.088 359.512 352.075 372.66C352.075 378.748 354.032 383.176 357.285 385.497L357.839 385.862L362.199 388.737L363.684 389.75L363.535 504.759C356.637 512.575 351.872 523.455 351.859 532.89C351.859 537.844 353.209 541.691 355.395 544.202L360.889 547.887L359.836 532.62L365.114 518.865L367.099 517.799L375.468 513.263L380.786 520.971L374.982 535.59L371.094 545.579L376.588 549.264L381.205 537.615C388.265 529.772 393.178 518.717 393.192 509.146C393.262 506.055 392.581 502.993 391.208 500.223L393.246 499.913L388.089 496.471C386.141 495.037 383.756 494.321 381.34 494.446L381.488 377.29C388.481 369.461 393.34 358.392 393.354 348.943C393.354 348.146 393.354 347.404 393.246 346.675L395.284 341.276Z" fill="#7A51E6"/>
<path d="M386.807 498.104L386.955 380.948C393.961 373.106 398.821 362.118 398.834 352.601C398.834 347.647 397.485 343.813 395.284 341.289L385.579 366.586L375.252 372.201L369.92 364.48L379.666 339.926C379.194 340.169 378.708 340.412 378.235 340.695C366.842 347.255 357.582 363.225 357.569 376.372C357.569 385.821 362.293 391.221 369.191 391.099L369.043 508.458C362.145 516.287 357.38 527.167 357.366 536.603C357.366 541.557 358.716 545.39 360.903 547.914L370.609 522.631L380.949 517.016L386.281 524.737L376.494 549.264C376.966 549.021 377.439 548.778 377.925 548.495C389.318 541.935 398.564 525.965 398.578 512.818C398.632 503.301 393.799 497.875 386.807 498.104Z" fill="#7A51E6"/>
<path d="M393.219 499.872L388.062 496.43C387.656 496.127 387.228 495.857 386.78 495.62V498.091C389.063 497.971 391.322 498.596 393.219 499.872Z" fill="#7A51E6"/>
<path opacity="0.4" d="M393.219 499.872L388.062 496.43C387.656 496.127 387.228 495.857 386.78 495.62V498.091C389.063 497.971 391.322 498.596 393.219 499.872Z" fill="black"/>
<path d="M381.151 537.615L386.28 524.71L380.948 516.989L378.802 518.15L380.786 521.025L374.982 535.644L371.04 545.579L376.534 549.264L381.151 537.615Z" fill="#7A51E6"/>
<path opacity="0.2" d="M357.852 385.862L362.212 388.737H362.293C359.337 386.321 357.555 382.055 357.569 376.291C357.569 363.144 366.842 347.175 378.235 340.614C378.708 340.331 379.194 340.088 379.666 339.845L374.186 336.159C373.7 336.402 373.214 336.645 372.741 336.929C361.348 343.489 352.102 359.458 352.088 372.606C352.088 378.694 354.045 383.122 357.299 385.443L357.852 385.862Z" fill="black"/>
<path opacity="0.2" d="M389.804 337.59L380.098 362.874L385.578 366.559L395.284 341.276L389.804 337.59Z" fill="black"/>
<path opacity="0.4" d="M380.098 362.874L385.579 366.559L375.252 372.161L371.904 367.328L380.098 362.874Z" fill="black"/>
<path opacity="0.4" d="M369.191 391.072C367.24 391.142 365.307 390.675 363.603 389.723H363.697L363.549 504.732L369.043 508.404L369.191 391.072Z" fill="black"/>
<path opacity="0.2" d="M351.872 532.89C351.872 537.844 353.222 541.691 355.409 544.202L360.903 547.887C358.662 545.363 357.353 541.53 357.366 536.575C357.366 527.126 362.145 516.26 369.042 508.431L363.548 504.759C356.651 512.575 351.886 523.455 351.872 532.89Z" fill="black"/>
<path opacity="0.4" d="M380.786 521.025L386.28 524.71L380.948 516.989L378.802 518.15L380.786 521.025Z" fill="black"/>
<path opacity="0.2" d="M371.04 545.579L376.534 549.264L386.28 524.71L380.786 521.025L371.04 545.579Z" fill="black"/>
<path d="M350.927 548.819C350.927 548.819 345.811 544.445 343.827 544.229C341.842 544.013 338.427 547.428 341.303 553.341C342.112 554.974 345.352 556.756 347.444 559.901C349.537 563.047 351.346 565.422 354.491 564.99C357.636 564.558 358.054 562.777 357.852 560.725C357.586 558.845 357.207 556.984 356.718 555.15L350.927 548.819Z" fill="#37474F"/>
<path d="M354.666 564.045C351.427 564.491 349.51 562.048 347.404 558.808C345.298 555.568 341.897 553.732 341.06 552.059C340.727 551.382 340.456 550.677 340.25 549.953C340.405 551.143 340.761 552.297 341.303 553.368C342.113 555.001 345.352 556.783 347.445 559.928C349.537 563.074 351.346 565.449 354.491 565.017C356.907 564.68 357.704 563.559 357.866 562.129C357.558 562.709 357.097 563.195 356.533 563.533C355.969 563.871 355.324 564.048 354.666 564.045Z" fill="#263238"/>
<path d="M348.147 554.448C348.067 554.467 347.983 554.467 347.904 554.448C347.79 554.383 347.706 554.276 347.668 554.151C347.63 554.025 347.642 553.89 347.701 553.773C348.214 552.859 348.903 552.056 349.728 551.41C350.553 550.764 351.497 550.287 352.507 550.007C352.573 549.979 352.646 549.965 352.718 549.968C352.79 549.97 352.861 549.989 352.926 550.021C352.991 550.054 353.048 550.1 353.093 550.157C353.138 550.214 353.17 550.28 353.186 550.351C353.203 550.421 353.205 550.495 353.19 550.566C353.176 550.637 353.146 550.704 353.104 550.762C353.061 550.821 353.006 550.869 352.942 550.904C352.879 550.939 352.808 550.96 352.736 550.965C350.98 551.484 349.492 552.659 348.579 554.245C348.529 554.312 348.464 554.366 348.388 554.402C348.313 554.437 348.23 554.453 348.147 554.448Z" fill="#EBEBEB"/>
<path d="M346.284 552.693C346.203 552.691 346.123 552.668 346.054 552.625C345.995 552.596 345.943 552.554 345.901 552.504C345.859 552.453 345.827 552.395 345.808 552.331C345.789 552.268 345.783 552.202 345.791 552.136C345.798 552.071 345.819 552.008 345.852 551.951C346.893 550.11 348.621 548.756 350.657 548.184C350.786 548.16 350.919 548.185 351.029 548.255C351.14 548.326 351.219 548.435 351.251 548.562C351.279 548.691 351.256 548.826 351.185 548.937C351.114 549.048 351.002 549.127 350.873 549.156C349.12 549.666 347.634 550.837 346.729 552.423C346.686 552.504 346.622 552.571 346.543 552.619C346.465 552.666 346.375 552.692 346.284 552.693Z" fill="#EBEBEB"/>
<path d="M344.097 550.925C344.021 550.942 343.943 550.942 343.867 550.925C343.751 550.862 343.665 550.756 343.627 550.629C343.589 550.503 343.603 550.366 343.665 550.25C344.706 548.409 346.434 547.055 348.47 546.484C348.536 546.463 348.606 546.457 348.674 546.465C348.743 546.472 348.809 546.494 348.869 546.529C348.928 546.564 348.98 546.61 349.021 546.666C349.062 546.722 349.091 546.785 349.106 546.852C349.12 546.92 349.121 546.99 349.108 547.057C349.095 547.125 349.067 547.189 349.028 547.246C348.989 547.302 348.938 547.35 348.879 547.386C348.82 547.423 348.755 547.446 348.686 547.455C346.936 547.97 345.452 549.14 344.542 550.722C344.492 550.791 344.424 550.846 344.346 550.882C344.268 550.917 344.182 550.932 344.097 550.925Z" fill="#EBEBEB"/>
<path d="M323.714 563.168C323.714 563.168 316.87 560.954 314.831 561.562C312.793 562.169 310.782 566.961 316.073 571.591C317.558 572.874 321.473 573.279 324.848 575.546C328.222 577.814 330.962 579.394 333.892 577.666C336.821 575.938 336.591 573.981 336.065 571.834C335.404 569.135 334.864 567.11 334.864 567.11L323.714 563.168Z" fill="#37474F"/>
<path d="M333.676 576.667C330.652 578.435 327.777 576.815 324.348 574.48C320.919 572.145 316.829 571.78 315.304 570.43C314.697 569.894 314.137 569.307 313.63 568.676C314.276 569.785 315.102 570.779 316.073 571.618C317.558 572.901 321.473 573.306 324.848 575.573C328.222 577.841 330.963 579.421 333.892 577.693C336.146 576.343 336.47 574.993 336.038 573.468C335.998 574.561 335.417 575.654 333.676 576.667Z" fill="#263238"/>
<path d="M322.08 569.499C322.015 569.494 321.952 569.476 321.894 569.446C321.836 569.416 321.785 569.374 321.743 569.324C321.701 569.273 321.67 569.215 321.652 569.152C321.633 569.09 321.628 569.024 321.635 568.959C321.898 566.719 323.039 564.676 324.807 563.276C324.917 563.201 325.052 563.172 325.183 563.195C325.314 563.218 325.431 563.29 325.509 563.397C325.548 563.45 325.575 563.51 325.589 563.574C325.604 563.637 325.606 563.703 325.594 563.767C325.583 563.832 325.559 563.893 325.523 563.948C325.488 564.002 325.442 564.049 325.388 564.086C323.861 565.324 322.869 567.103 322.62 569.053C322.607 569.184 322.543 569.303 322.442 569.387C322.341 569.47 322.211 569.51 322.08 569.499Z" fill="#EBEBEB"/>
<path d="M324.915 570.417C324.785 570.403 324.665 570.339 324.582 570.238C324.499 570.137 324.458 570.007 324.47 569.877C324.74 567.64 325.885 565.602 327.655 564.207C327.707 564.168 327.767 564.14 327.83 564.125C327.893 564.109 327.958 564.106 328.022 564.116C328.087 564.126 328.148 564.149 328.203 564.183C328.259 564.217 328.306 564.262 328.344 564.315C328.42 564.424 328.451 564.557 328.431 564.688C328.411 564.819 328.341 564.937 328.236 565.017C326.727 566.256 325.759 568.032 325.536 569.971C325.528 570.043 325.505 570.112 325.469 570.175C325.433 570.237 325.384 570.291 325.325 570.333C325.267 570.375 325.2 570.404 325.129 570.419C325.058 570.433 324.986 570.432 324.915 570.417Z" fill="#EBEBEB"/>
<path d="M319.475 568.541C319.345 568.527 319.225 568.463 319.142 568.362C319.059 568.261 319.018 568.131 319.03 568.001C319.3 565.764 320.445 563.725 322.215 562.331C322.269 562.293 322.33 562.265 322.395 562.25C322.46 562.235 322.527 562.233 322.592 562.245C322.657 562.256 322.72 562.28 322.776 562.316C322.831 562.352 322.88 562.398 322.917 562.453C322.988 562.562 323.015 562.693 322.992 562.821C322.969 562.949 322.899 563.063 322.796 563.141C321.265 564.37 320.273 566.147 320.029 568.095C320.022 568.161 320.002 568.225 319.971 568.283C319.939 568.341 319.896 568.392 319.845 568.433C319.793 568.475 319.734 568.506 319.671 568.524C319.607 568.542 319.541 568.548 319.475 568.541Z" fill="#EBEBEB"/>
<path d="M372.215 428.518L377.614 434.187L387.063 424.86V415.06C387.063 415.06 391.113 420.108 391.113 425.211C391.113 430.313 389.763 431.231 388.251 434.187C386.739 437.144 380.746 449.036 376.629 446.458C372.408 443.438 368.352 440.194 364.48 436.739L372.215 428.518Z" fill="#FFA8A7"/>
<path d="M354.977 411.132C354.977 411.132 358.365 411.132 362.577 416.059C366.788 420.986 373.862 428.882 373.862 428.882C373.842 431.261 373.037 433.567 371.573 435.442C370.108 437.316 368.066 438.655 365.762 439.249L355.908 430.786L354.977 411.132Z" fill="#7A51E6"/>
<path opacity="0.4" d="M354.977 411.132C354.977 411.132 358.365 411.132 362.577 416.059C366.788 420.986 373.862 428.882 373.862 428.882C373.842 431.261 373.037 433.567 371.573 435.442C370.108 437.316 368.066 438.655 365.762 439.249L355.908 430.786L354.977 411.132Z" fill="white"/>
<path d="M357.042 550.169C357.649 543.419 358.986 532.755 359.539 527.788C360.293 521.496 360.111 515.128 358.999 508.89C358.712 507.423 358.639 505.922 358.783 504.435C360.133 490.936 361.011 469.028 360.268 464.209L341.302 468.258C341.302 468.258 343.624 498.968 344.637 509.187C345.649 519.405 349.496 550.169 349.496 550.169C350.617 550.905 351.928 551.297 353.269 551.297C354.61 551.297 355.921 550.905 357.042 550.169Z" fill="#455A64"/>
<path d="M354.315 557.094C354.836 556.97 355.322 556.731 355.738 556.395C356.153 556.058 356.489 555.633 356.718 555.15C356.718 554.083 356.84 552.288 357.042 550.128C355.928 550.879 354.618 551.287 353.275 551.302C351.931 551.316 350.613 550.936 349.483 550.209L350.158 555.919C350.714 556.421 351.379 556.787 352.1 556.991C352.821 557.194 353.579 557.23 354.315 557.094Z" fill="#FFA8A7"/>
<path d="M335.714 562.048C336.484 551.775 337.982 531.878 338.171 528.76C338.315 525.304 338.098 521.843 337.523 518.433C337.192 516.589 337.192 514.702 337.523 512.858L345.852 466.625L322.904 466.287L321.406 514.734C321.381 515.361 321.404 515.988 321.473 516.611L326.333 561.751C326.333 561.751 331.138 565.733 335.714 562.048Z" fill="#455A64"/>
<path d="M331.948 570.525C332.66 570.44 333.34 570.18 333.926 569.767C334.513 569.355 334.988 568.804 335.309 568.163L335.782 562.048C331.206 565.733 326.468 561.751 326.468 561.751L327.196 568.5C327.196 568.5 328.209 570.862 331.948 570.525Z" fill="#FFA8A7"/>
<path d="M333.554 414.223L328.155 416.072L322.337 443.529L322.62 467.921C322.62 467.921 326.778 471.228 342.99 471.228C352.102 471.228 358.028 467.799 360.268 464.141L358.811 449.468C358.811 449.468 360.295 434.943 360.295 427.762C360.295 420.581 360.619 414.709 355.004 411.145L350.009 411.55L333.554 414.223Z" fill="#7A51E6"/>
<path opacity="0.2" d="M333.554 414.223L328.155 416.072L322.337 443.529L322.62 467.921C322.62 467.921 326.778 471.228 342.99 471.228C352.102 471.228 358.028 467.799 360.268 464.141L358.811 449.468C358.811 449.468 360.295 434.943 360.295 427.762C360.295 420.581 360.619 414.709 355.004 411.145L350.009 411.55L333.554 414.223Z" fill="white"/>
<path d="M327.682 390.587L324.983 395.986C324.943 396.064 324.921 396.149 324.918 396.237C324.915 396.324 324.93 396.411 324.963 396.492C324.997 396.572 325.047 396.645 325.111 396.704C325.175 396.764 325.251 396.809 325.334 396.836L328.546 397.903L327.682 390.587Z" fill="#F28F8F"/>
<path d="M331.435 381.596C331.435 381.596 327.385 383.81 327.385 396.445C327.385 403.424 327.871 407.878 331.435 407.595C334.999 407.311 345.447 406.016 345.447 406.016V381.596H331.435Z" fill="#FFA8A7"/>
<path d="M331.435 407.649C332.717 407.554 334.823 407.325 337.037 407.068V405.719C335.043 406.572 332.961 407.201 330.828 407.595C331.028 407.633 331.231 407.651 331.435 407.649Z" fill="#F28F8F"/>
<path d="M336.416 405.233V413.197H347.31V402.006L336.416 405.233Z" fill="#FFA8A7"/>
<path d="M336.416 410.16C338.681 410.945 341.089 411.235 343.476 411.01C346.635 410.457 347.31 408.54 347.31 408.54C347.31 408.54 348.335 408.472 350.009 411.55C349.362 412.697 348.442 413.667 347.331 414.373C346.22 415.08 344.951 415.501 343.638 415.6C340.223 415.827 336.797 415.34 333.581 414.169C333.581 414.169 335.08 409.782 336.416 410.16Z" fill="#7A51E6"/>
<path opacity="0.4" d="M336.416 410.16C338.681 410.945 341.089 411.235 343.476 411.01C346.635 410.457 347.31 408.54 347.31 408.54C347.31 408.54 348.335 408.472 350.009 411.55C349.362 412.697 348.442 413.667 347.331 414.373C346.22 415.08 344.951 415.501 343.638 415.6C340.223 415.827 336.797 415.34 333.581 414.169C333.581 414.169 335.08 409.782 336.416 410.16Z" fill="white"/>
<path d="M283.258 450.926L278.925 448.226C278.827 448.166 278.747 448.081 278.691 447.981C278.635 447.88 278.605 447.767 278.605 447.652C278.605 447.537 278.635 447.425 278.691 447.324C278.747 447.224 278.827 447.139 278.925 447.079L297.985 435.902C298.231 435.753 298.514 435.674 298.802 435.674C299.09 435.674 299.372 435.753 299.618 435.902L323.376 450.845C323.561 450.955 323.714 451.111 323.82 451.298C323.926 451.485 323.982 451.696 323.982 451.911C323.982 452.126 323.926 452.337 323.82 452.524C323.714 452.711 323.561 452.868 323.376 452.978L303.776 463.777C303.475 463.942 303.134 464.02 302.791 464.003C302.448 463.987 302.116 463.876 301.832 463.682L283.258 450.926Z" fill="#37474F"/>
<path d="M283.258 449.9L278.925 447.2C278.827 447.14 278.747 447.055 278.691 446.955C278.635 446.854 278.605 446.741 278.605 446.627C278.605 446.512 278.635 446.399 278.691 446.298C278.747 446.198 278.827 446.113 278.925 446.053L297.985 434.876C298.232 434.73 298.515 434.653 298.802 434.653C299.089 434.653 299.371 434.73 299.618 434.876L323.376 449.833C323.561 449.943 323.714 450.099 323.82 450.286C323.926 450.473 323.982 450.684 323.982 450.899C323.982 451.114 323.926 451.325 323.82 451.512C323.714 451.699 323.561 451.855 323.376 451.965L303.776 462.764C303.475 462.93 303.132 463.008 302.789 462.989C302.445 462.97 302.114 462.855 301.832 462.656L283.258 449.9Z" fill="#E0E0E0"/>
<path d="M278.615 444.784V446.552H281.625L278.615 444.784Z" fill="#E0E0E0"/>
<path d="M283.258 448.226L278.925 445.459C278.827 445.4 278.746 445.317 278.69 445.218C278.634 445.118 278.604 445.006 278.604 444.892C278.604 444.778 278.634 444.666 278.69 444.566C278.746 444.467 278.827 444.384 278.925 444.325L297.985 433.148C298.231 432.999 298.514 432.921 298.802 432.921C299.09 432.921 299.372 432.999 299.618 433.148L323.376 448.105C323.561 448.215 323.714 448.371 323.82 448.558C323.926 448.745 323.982 448.956 323.982 449.171C323.982 449.386 323.926 449.597 323.82 449.784C323.714 449.971 323.561 450.127 323.376 450.237L303.776 461.036C303.476 461.204 303.134 461.285 302.79 461.268C302.447 461.251 302.115 461.138 301.832 460.942L283.258 448.226Z" fill="white"/>
<path d="M286.484 444.973C286.397 444.975 286.311 444.953 286.235 444.911C286.159 444.868 286.096 444.806 286.052 444.73C286.017 444.675 285.993 444.613 285.982 444.548C285.972 444.484 285.975 444.417 285.991 444.354C286.008 444.29 286.037 444.231 286.078 444.18C286.119 444.128 286.17 444.086 286.228 444.055L299.227 436.428C299.34 436.364 299.474 436.346 299.6 436.379C299.726 436.411 299.835 436.492 299.902 436.604C299.967 436.719 299.985 436.855 299.953 436.983C299.92 437.112 299.839 437.222 299.726 437.292L286.727 444.879C286.658 444.935 286.573 444.968 286.484 444.973Z" fill="#7A51E6"/>
<path d="M289.67 447.052C289.583 447.051 289.498 447.028 289.423 446.986C289.347 446.943 289.284 446.882 289.238 446.809C289.202 446.753 289.178 446.69 289.167 446.624C289.157 446.558 289.16 446.491 289.176 446.426C289.193 446.362 289.222 446.301 289.263 446.249C289.304 446.196 289.355 446.152 289.413 446.12L302.413 438.507C302.468 438.471 302.53 438.447 302.594 438.437C302.659 438.426 302.725 438.43 302.789 438.446C302.852 438.463 302.912 438.492 302.963 438.533C303.015 438.574 303.057 438.625 303.088 438.683C303.152 438.796 303.17 438.93 303.137 439.056C303.105 439.182 303.024 439.29 302.912 439.357L289.913 446.984C289.838 447.025 289.755 447.048 289.67 447.052Z" fill="#7A51E6"/>
<path d="M292.802 449.117C292.714 449.119 292.628 449.098 292.552 449.055C292.476 449.012 292.413 448.95 292.37 448.874C292.336 448.817 292.313 448.755 292.303 448.689C292.294 448.624 292.297 448.557 292.314 448.493C292.33 448.429 292.359 448.369 292.398 448.316C292.438 448.263 292.488 448.219 292.545 448.186L305.544 440.572C305.599 440.537 305.661 440.513 305.726 440.502C305.791 440.492 305.857 440.495 305.92 440.511C305.984 440.528 306.043 440.557 306.095 440.598C306.146 440.639 306.189 440.69 306.219 440.748C306.284 440.861 306.302 440.995 306.269 441.121C306.236 441.247 306.155 441.355 306.044 441.423L293.045 449.05C292.97 449.09 292.887 449.114 292.802 449.117Z" fill="#7A51E6"/>
<path d="M296.041 451.182C295.954 451.184 295.868 451.163 295.792 451.12C295.716 451.077 295.653 451.015 295.609 450.939C295.545 450.826 295.527 450.692 295.56 450.566C295.593 450.44 295.673 450.332 295.785 450.264L308.784 442.638C308.897 442.573 309.031 442.555 309.157 442.588C309.283 442.621 309.392 442.702 309.459 442.813C309.524 442.928 309.542 443.064 309.51 443.193C309.477 443.321 309.396 443.432 309.284 443.502L296.284 451.115C296.212 451.162 296.127 451.185 296.041 451.182Z" fill="#7A51E6"/>
<path d="M299.227 453.261C299.117 453.262 299.009 453.227 298.921 453.161C298.833 453.094 298.769 453.001 298.74 452.894C298.71 452.788 298.717 452.675 298.759 452.573C298.801 452.471 298.875 452.385 298.97 452.33L311.97 444.716C312.025 444.681 312.087 444.657 312.151 444.646C312.216 444.636 312.282 444.639 312.346 444.656C312.409 444.672 312.469 444.702 312.52 444.742C312.572 444.783 312.614 444.834 312.645 444.892C312.678 444.948 312.701 445.009 312.71 445.074C312.72 445.138 312.716 445.204 312.7 445.267C312.683 445.329 312.654 445.388 312.615 445.44C312.575 445.492 312.526 445.535 312.469 445.567L299.47 453.194C299.396 453.237 299.312 453.26 299.227 453.261Z" fill="#7A51E6"/>
<path d="M317.207 439.357L314.4 449.117C314.4 449.117 309.931 450.467 304.95 452.087C301.906 453.095 298.781 453.84 295.609 454.314C294.717 453.24 293.896 452.108 293.152 450.926C292.37 449.576 291.708 447.578 291.087 448.226C290.466 448.874 289.548 451.034 291.087 454.355C289.943 454.514 288.777 454.36 287.712 453.909C286.165 453.005 284.665 452.023 283.217 450.966C283.217 450.966 282.03 454.179 283.217 456.028C284.405 457.878 287.915 460.55 295.812 460.55C303.709 460.55 321.891 459.012 323.525 456.231C325.158 453.45 328.141 440.329 328.141 440.329L317.207 439.357Z" fill="#FFA8A7"/>
<path d="M328.155 416.072C328.155 416.072 333.379 418.191 332.893 426.115C332.407 434.039 328.155 444.743 328.155 444.743C328.155 444.743 320.19 444.743 315.547 439.776L320.217 422.606C320.552 421.388 321.168 420.266 322.014 419.328C322.86 418.39 323.914 417.664 325.09 417.206C325.941 416.855 326.953 416.531 328.155 416.072Z" fill="#7A51E6"/>
<path opacity="0.4" d="M328.155 416.072C328.155 416.072 333.379 418.191 332.893 426.115C332.407 434.039 328.155 444.743 328.155 444.743C328.155 444.743 320.19 444.743 315.547 439.776L320.217 422.606C320.552 421.388 321.168 420.266 322.014 419.328C322.86 418.39 323.914 417.664 325.09 417.206C325.941 416.855 326.953 416.531 328.155 416.072Z" fill="white"/>
<path d="M329.869 374.118C329.869 374.118 325.563 373.551 324.47 376.521C323.781 378.37 325.981 379.801 325.981 379.801C325.981 379.801 323.201 382.42 327.331 383.23C327.253 383.676 327.288 384.134 327.433 384.563C327.579 384.992 327.83 385.378 328.163 385.684C328.497 385.991 328.902 386.209 329.341 386.318C329.781 386.426 330.241 386.423 330.679 386.307C330.679 386.307 330.207 389.129 333.838 390.114C333.838 390.114 332.002 395.001 335.444 395.068H338.697L337.347 398.821C338.261 400.649 339.687 402.173 341.451 403.206C343.215 404.239 345.241 404.736 347.282 404.639C348.116 402.875 349.053 401.162 350.09 399.509C350.981 398.348 355.638 392.395 355.638 387.671C355.638 382.946 353.816 380.152 351.305 379.571C350.504 377.843 349.261 376.358 347.701 375.265C345.163 373.551 339.831 372.026 336.821 374.118C336.821 374.118 334.121 370.622 332.299 370.622C330.477 370.622 329.869 372.485 329.869 374.118Z" fill="#263238"/>
<path d="M335.444 395.068C335.444 395.068 335.134 390.114 339.305 390.114C343.476 390.114 342.491 398.821 337.374 398.821L335.444 395.068Z" fill="#FFA8A7"/>
</g>
<defs>
<clipPath id="clip0_8_2">
<rect width="618" height="608.983" fill="white"/>
</clipPath>
</defs>
</svg>
